<?xml version="1.0" encoding="utf-8"?>
<!-- Generator: Adobe Illustrator 24.1.0, SVG Export Plug-In . SVG Version: 6.00 Build 0)  -->
<svg version="1.1" xmlns="http://www.w3.org/2000/svg" xmlns:xlink="http://www.w3.org/1999/xlink" x="0px" y="0px"
	 viewBox="0 0 1078.2 255.7" style="enable-background:new 0 0 1078.2 255.7;" xml:space="preserve">
<style type="text/css">
	.st0{fill:#0070BA;}
	.st1{fill-rule:evenodd;clip-rule:evenodd;fill:#0070BA;}
</style>
<g id="Сетка">
</g>
<g id="Логоблок">
	<g>
		<path class="st0" d="M655.7,105c0-18.1-9.8-26.8-31.1-26.8c-18.7,0-28.5,6.8-30.5,21h11.6c1.6-8.1,7.2-11.3,18.7-11.3
			s18,3.7,19.5,12.3h-29.6v9.4H644c-1.4,8.8-7.4,12.6-19.5,12.6c-12.1,0-17.3-3.4-18.8-11.6H594c1.9,14.5,11.7,21.3,30.4,21.3
			C645.7,131.8,655.7,123.2,655.7,105z M718.5,131.1V79h-11v20.6h-34.2V79h-11v52.1h11v-21.7h34.2v21.7H718.5z M777.6,121.3h-39.3
			v-12.1H773v-9.8h-34.7V88.8h39.3V79h-50.3v52.1h50.3V121.3z M795.2,112.6h27.2c12.6,0,18.7-5.4,18.7-16.8
			c0-11.4-6.1-16.8-18.7-16.8h-38.1v52.1h11V112.6z M795.2,88.8h24.5c6.9,0,9.9,2,9.9,6.9c0,4.9-3,7.1-9.9,7.1h-24.5V88.8z
			 M857.1,88.8h35V79h-46v52.1h11V88.8z M954.3,131V79h-11v52H954.3z M931.5,79l-25.5,52V79h-11v52.1h22.8l25.5-52H931.5z M981,79
			c-12.6,0-18.7,5.5-18.7,16.5c0,9.5,4.6,14.9,13.8,16.3l-16.8,19.3h13.8l16.5-19h18.6v19h11V79H981z M1008.2,102.6h-24.5v0
			c-6.9,0-9.9-2.1-9.9-7c0-4.8,2.9-6.9,9.9-6.9h24.5V102.6z M602.6,169.4v-0.6c4-1.9,6.2-5.9,6.2-11.3c0-8.4-5.3-13.2-15.4-13.2H553
			v52.1h40.8c10.8,0,16.5-5.3,16.5-15.1C610.3,174.8,607.5,170.7,602.6,169.4z M564,154.1h25.7c5.6,0,8,1.5,8,5.2
			c0,3.7-2.4,5.3-8,5.3H564V154.1z M590.1,186.6L590.1,186.6l-26.1,0v-12.7h26.1c6.3,0,9,1.9,9,6.3S596.4,186.6,590.1,186.6z
			 M631.5,196.4h13.7l43.2-52.1h-13.7L631.5,196.4z M688.4,196.4h11v-52.1h-11V196.4z M755.1,143.6L755.1,143.6
			c-19.6,0-29.6,7.6-30.8,23.3h-5.2v-22.6h-11v52.1h11v-19.7h5.5c2.2,13.9,12.1,20.4,30.4,20.4c21,0,31.2-8.6,31.2-26.8
			S776.2,143.6,755.1,143.6z M754.8,187.3c-13.8,0-19.2-4.8-19.2-17.1s5.3-16.9,19.2-16.9c13.9,0,19.9,5.1,19.9,16.9
			S768.9,187.3,754.8,187.3z M848.6,144.3h-11v42.3h-36.4l36.4-42.3h-13.8l-44.3,52.1h74.1v-9.8h-5V144.3z M877.1,144.3
			c-12.6,0-18.7,5.5-18.7,16.5c0,9.5,4.6,14.9,13.8,16.3l-16.8,19.3h13.8l16.5-19h18.6v19h11v-52.1L877.1,144.3L877.1,144.3z
			 M904.3,154.1v13.8h-24.5v0c-6.9,0-9.9-2.1-9.9-7c0-4.8,2.9-6.9,9.9-6.9H904.3z M919.6,142.9v12.7l20.3,14.6l-20.3,14.9v12.7
			l28.9-21.3l29.6,21.3v-12.7l-20.3-14.6l20.3-15v-12.5l-28.9,21.3L919.6,142.9z"/>
		<path class="st1" d="M346.9,131.3c1.4,0,2.5-1,2.5-2.3V89.4c-0.2-1.1-1.2-2-2.5-2c-1.3,0-2.3,0.9-2.5,2V129
			C344.4,130.2,345.5,131.3,346.9,131.3z M351.5,80.2c7.9,0,8.4,6.3,8.4,10.4V128c0,4.1-0.5,10.4-8.4,10.4h-9.3
			c-7.9,0-8.4-6.3-8.4-10.4V90.6c0-4.1,0.5-10.4,8.4-10.4H351.5z M176.1,80.2h21.5v7.2h-10.2v51.1h-11.3V80.2z M205.1,80.2h17.7
			l5.9,58.3h-11l-1-15.5h-5.3l-1,15.5h-11L205.1,80.2L205.1,80.2z M216.1,116.6l-1.9-29.2h-0.6l-1.9,29.2H216.1z M244.7,118.1v11
			c0,1.5,1.1,1.9,1.7,1.9c1,0,1.7-0.9,1.7-1.9v-13.6c0-1.8-0.3-3.8-4.5-3.8h-4.6v-6.4h4.7c3.2,0,4.4-0.8,4.4-4.3V89.3
			c0-1-0.7-1.9-1.7-1.9c-0.7,0-1.7,0.4-1.7,1.9v9.5h-11.3v-8.2c0-4.1,0.5-10.4,8.4-10.4h9.3c7.9,0,8.4,6.3,8.4,10.4v9.4
			c0,6.3-4.3,8-7.7,7.9v0.6c7.5-0.2,7.7,5.8,7.7,7.9V128c0,4.1-0.5,10.4-8.4,10.4h-9.3c-7.8,0-8.4-6.3-8.4-10.4v-10H244.7z
			 M266.9,80.2h26v58.3h-10.5V87.4h-5.1v51.1h-10.5V80.2z M301.1,80.2h17.7c7.9,0,9.1,6.3,9.1,10.4v17.6c0,4.1-1.2,10.4-9.1,10.4
			h-6.4v19.8h-11.3L301.1,80.2L301.1,80.2z M315.3,112.2c1.2,0,2.1-1.1,2.1-2.9v-19c0-1.8-0.9-2.9-2.1-2.9h-3v24.8L315.3,112.2
			L315.3,112.2z M395.7,80.2h14.6v58.3h-11.3v-36.6h-0.4l-5.8,36.6h-9l-5.8-36.6h-0.4v36.6h-11.3V80.2h14.6l7.3,41L395.7,80.2z
			 M152.1,86.1c0.1-5.9-0.5-15.9-3.3-26.4c-2.9-10.5-8.5-20.5-9.4-21.7c-0.8,1.3-5.3,9.4-9.2,22c-1,3.8-2.9,12-3.2,20.1
			c-0.4,9.7,0.9,19.4,1.5,22.1c0-3.2,0.1-14,2.1-22.9c2-8.9,5.8-19.1,8.9-24.3c3.3,5.5,7.6,17.3,9.1,24.4c1.5,7.1,2.3,16.1,1.9,22.5
			C151.3,98.2,152,91.9,152.1,86.1 M139.5,131.3c1.8-3.3,4.9-10.7,4.7-20c-0.4-9.5-3.6-16.5-4.6-18.1c-1.1,1.7-4.9,9.7-4.8,19
			C135,121.8,137.7,128,139.5,131.3 M153.2,59.7c3.5,15.5,3.5,25,1.9,35.9c-2.8,19.6-11.7,34.5-15.6,39.5
			c-2.6-3.4-6.7-10.4-9.4-16.8c0,0-5.1-12.3-6.5-24.4c-1.4-12-0.8-24.2,3.2-38c3.6-12.4,10.7-23.5,12.7-26.4
			C140.7,31.6,149.6,44.2,153.2,59.7z M160.5,138.4v39.9c-10.7,11.3-25.9,18.4-42.8,18.4c-32.4,0-58.7-26.1-58.7-58.2
			c0-32.1,26.3-58.2,58.7-58.2v43.7c-8.4,0-16.9,3.2-23.3,9.6c-1.5,1.5-2.9,3.1-4,4.9c-8.6,12.7-7.3,30.1,4,41.3
			c6.4,6.3,14.9,9.6,23.3,9.6s16.8-3.2,23.2-9.5c0,0,0.1,0,0.1-0.1l0.1-0.1c6.4-6.4,6.4-16.7,0-23.1c-6.4-6.4-16.9-6.4-23.3,0
			c0,0-0.1,0-0.1,0.1v-18.3L160.5,138.4L160.5,138.4z M400,180.3c0-5.1-2.2-6.4-8-6.4h-1v-9.8H385v25.3h5.9c6.4,0,9-1,9-6.5V180.3z
			 M350.4,164.1h-15v4.8h4.8v20.6h5.6v-20.6h4.5L350.4,164.1L350.4,164.1z M304.7,172.5c0-5.2-2.5-6.5-8.5-6.5v-1.9h-5.8v1.9
			c-6,0-8.5,1.3-8.5,6.5v7.9c0,5.1,2.6,6.5,8.5,6.5v2.5h5.8V187c5.9,0,8.5-1.4,8.5-6.5V172.5z M250.9,164.1h-14.3v25.4h14.3v-4.8
			h-8.1v-6h7.3v-4.8h-7.3v-5h8.1V164.1L250.9,164.1z M201.6,164.1h-5.9v9.8h-3.1v-9.8h-5.9v25.3h5.9v-11.1h3.1v11.1h5.9V164.1z
			 M410.5,196.7H176.1v-38.9h234.3L410.5,196.7L410.5,196.7z M287.7,172.3c0-1.5,0.5-1.9,1.8-1.9h0.9v11.8h-0.9
			c-1.3,0-1.8-0.3-1.8-1.8V172.3z M392.3,178.4c1.3,0,1.7,0.3,1.7,1.8v3.1c0,1.4-0.4,1.8-1.7,1.8H391v-6.6H392.3z M297.1,170.5
			c1.3,0,1.8,0.3,1.8,1.8v8.2c0,1.5-0.5,1.9-1.8,1.9h-0.9v-11.8H297.1z"/>
		<path class="st1" d="M535.4,79.1h13.6l-96.6,117h-13.6L535.4,79.1z"/>
	</g>
</g>
</svg>
